{"title":"Furious 7 (2015) TS [RUS]","uid":11819124,"size":443289780,"categoryP":"video","categoryS":"movies","magnet":"?xt=urn:btih:7e94c7c7344917b71e26e078b39d5bd8f5f03e15&amp;dn=Furious+7+%282015%29+TS+%5BRUS%5D&amp;tr=udp%3A%2F%2Ftracker.openbittorrent.com%3A80&amp;tr=udp%3A%2F%2Fopen.demonii.com%3A1337&amp;tr=udp%3A%2F%2Ftracker.coppersurfer.tk%3A6969&amp;tr=udp%3A%2F%2Fexodus.desync.com%3A6969","seeders":1,"leechers":0,"uploader":"nbdjod","files":1,"time":1429219886,"description":"Furious 7 (2015) TS [RUS]\n\nAudio - Russian!!!\n\nStoryline:\nDominic Torretto and his crew thought they left the criminal mercenary life behind. They defeated an international terrorist named Owen Shaw and went their seperate ways. But now, Shaw's brother, Deckard Shaw is out killing the crew one by one for revenge. Worse, a Somalian terrorist called Jakarde, and a shady government official called &quot;Mr. Nobody&quot; are both competing to steal a computer terrorism program called God's Eye, that can turn any technological device into a weapon. Torretto must reconvene with his team to stop Shaw and retrieve the God's Eye program while caught in a power struggle between terrorist and the United States government.\n\n\n\n\nReview by justicewillprevail:\nBut I'm giving it a 1, because of all the Walker Dead fans who upvoted. Will adjust after it's between that range. As for the franchise, it's flogging a dead horse. I mean they had started with drag racing, went on to drifting... this installment literally had cars flying EVERYWHERE.\n\nSmashing, jumping, flying, floating, cloning (Maserati), mating (Jeep?) cars... And The ROCK gets a car (sort of) too! Plot is par for the course, slightly dumbed down for the audience of today. (E.g. Kurt Russell's role and the MacGuffin tech nonsense)\n\nOverall, enjoyable show especially near the end where the action crosses into the ridiculous territory. Next installment, do F1 please.\n\n\n\n\nMI:\nGeneral\nFormat                                   : MPEG-4\nFormat profile                           : Base Media\nCodec ID                                 : isom\nFile size                                : 423 MiB\nDuration                                 : 2h 8mn\nOverall bit rate mode                    : Variable\nOverall bit rate                         : 460 Kbps\nEncoded date                             : UTC 2015-04-15 06:33:53\nTagged date                              : UTC 2015-04-15 06:33:53\n\nVideo\nID                                       : 1\nFormat                                   : AVC\nFormat/Info                              : Advanced Video Codec\nFormat profile                           : &lt;a class=&quot;__cf_email__&quot; href=&quot;/cdn-cgi/l/email-protection&quot; data-cfemail=&quot;024a6b656a424e362c33&quot;&gt;[email&amp;#160;protected]&lt;/a&gt;&lt;script cf-hash='f9e31' type=&quot;text/javascript&quot;&gt;\n/* &lt;![CDATA[ */!function(){try{var t=&quot;currentScript&quot;in document?document.currentScript:function(){for(var t=document.getElementsByTagName(&quot;script&quot;),e=t.length;e--;)if(t[e].getAttribute(&quot;cf-hash&quot;))return t[e]}();if(t&amp;&amp;t.previousSibling){var e,r,n,i,c=t.previousSibling,a=c.getAttribute(&quot;data-cfemail&quot;);if(a){for(e=&quot;&quot;,r=parseInt(a.substr(0,2),16),n=2;a.length-n;n+=2)i=parseInt(a.substr(n,2),16)^r,e+=String.fromCharCode(i);e=document.createTextNode(e),c.parentNode.replaceChild(e,c)}}}catch(u){}}();/* ]]&gt; */&lt;/script&gt;\nFormat settings, CABAC                   : Yes\nFormat settings, ReFrames                : 5 frames\nCodec ID                                 : avc1\nCodec ID/Info                            : Advanced Video Coding\nDuration                                 : 2h 8mn\nBit rate                                 : 360 Kbps\nMaximum bit rate                         : 2 242 Kbps\nWidth                                    : 480 pixels\nHeight                                   : 232 pixels\nDisplay aspect ratio                     : 2.069\nFrame rate mode                          : Constant\nFrame rate                               : 25.000 fps\nColor space                              : YUV\nChroma subsampling                       : 4:2:0\nBit depth                                : 8 bits\nScan type                                : Progressive\nBits/(Pixel*Frame)                       : 0.129\nStream size                              : 331 MiB (78%)\nWriting library                          : x264 core 142 r2431 ac76440\nEncoding settings                        : cabac=1 / ref=5 / deblock=1:0:0 / analyse=0x3:0x113 / me=umh / subme=8 / psy=1 / psy_rd=1.00:0.00 / mixed_ref=1 / me_range=16 / chroma_me=1 / trellis=1 / 8x8dct=1 / cqm=0 / deadzone=21,11 / fast_pskip=1 / chroma_qp_offset=-2 / threads=6 / lookahead_threads=1 / sliced_threads=0 / nr=0 / decimate=1 / interlaced=0 / bluray_compat=0 / constrained_intra=0 / bframes=3 / b_pyramid=2 / b_adapt=2 / b_bias=0 / direct=3 / weightb=1 / open_gop=0 / weightp=2 / keyint=250 / keyint_min=25 / scenecut=40 / intra_refresh=0 / rc_lookahead=50 / rc=2pass / mbtree=1 / bitrate=360 / ratetol=1.0 / qcomp=0.60 / qpmin=0 / qpmax=69 / qpstep=4 / cplxblur=20.0 / qblur=0.5 / vbv_maxrate=62500 / vbv_bufsize=78125 / nal_hrd=none / filler=0 / ip_ratio=1.40 / aq=1:1.00\nEncoded date                             : UTC 2015-04-15 20:11:07\nTagged date                              : UTC 2015-04-15 06:34:13\n\nAudio\nID                                       : 2\nFormat                                   : AAC\nFormat/Info                              : Advanced Audio Codec\nFormat profile                           : LC\nCodec ID                                 : 40\nDuration                                 : 2h 8mn\nBit rate mode                            : Variable\nBit rate                                 : 96.0 Kbps\nMaximum bit rate                         : 143 Kbps\nChannel(s)                               : 2 channels\nChannel positions                        : Front: L R\nSampling rate                            : 44.1 KHz\nCompression mode                         : Lossy\nStream size                              : 88.2 MiB (21%)\nEncoded date                             : UTC 2015-04-15 06:34:05\nTagged date                              : UTC 2015-04-15 06:34:13\n\nSample: &lt;a href=&quot;\nhttp://rusfolder.com/43466135&quot; rel=&quot;nofollow&quot; target=&quot;_NEW&quot;&gt;\nhttp://rusfolder.com/43466135&lt;/a&gt;\n\nScreens: &lt;a href=&quot;\nhttp://i5.imageban.ru/out/2015/04/16/65d4a302f8592582ec7904488434234f.jpg&quot; rel=&quot;nofollow&quot; target=&quot;_NEW&quot;&gt;\nhttp://i5.imageban.ru/out/2015/04/16/65d4a302f8592582ec7904488434234f.jpg&lt;/a&gt; &lt;a href=&quot;\nhttp://i4.imageban.ru/out/2015/04/16/1d463a37c45b876c2e4eef00d19d341d.jpg&quot; rel=&quot;nofollow&quot; target=&quot;_NEW&quot;&gt;\nhttp://i4.imageban.ru/out/2015/04/16/1d463a37c45b876c2e4eef00d19d341d.jpg&lt;/a&gt; &lt;a href=&quot;\nhttp://i1.imageban.ru/out/2015/04/16/8965c1820d2f65dd3b249d30a943e74e.jpg&quot; rel=&quot;nofollow&quot; target=&quot;_NEW&quot;&gt;\nhttp://i1.imageban.ru/out/2015/04/16/8965c1820d2f65dd3b249d30a943e74e.jpg&lt;/a&gt; &lt;a href=&quot;\nhttp://i6.imageban.ru/out/2015/04/16/38115ba3ea3942c5a65893c9bae783d9.jpg&quot; rel=&quot;nofollow&quot; target=&quot;_NEW&quot;&gt;\nhttp://i6.imageban.ru/out/2015/04/16/38115ba3ea3942c5a65893c9bae783d9.jpg&lt;/a&gt;","torrent":{"xt":"urn:btih:7e94c7c7344917b71e26e078b39d5bd8f5f03e15","amp;dn":"Furious+7+%282015%29+TS+%5BRUS%5D","amp;tr":["udp%3A%2F%2Ftracker.openbittorrent.com%3A80","udp%3A%2F%2Fopen.demonii.com%3A1337","udp%3A%2F%2Ftracker.coppersurfer.tk%3A6969","udp%3A%2F%2Fexodus.desync.com%3A6969"],"infoHash":"7e94c7c7344917b71e26e078b39d5bd8f5f03e15","infoHashBuffer":{"type":"Buffer","data":[126,148,199,199,52,73,23,183,30,38,224,120,179,157,91,216,245,240,62,21]},"announce":[],"urlList":[]}}